Coordinates
version=1
nRows=21
nColumns=12
inDegrees=yes

Units are S.I. units (second, meters, Newtons, ...)
Angles are in degrees

endheader
time	SC_y	SC_z	SC_x	AC_y	AC_z	AC_x	GH_y	GH_z	GH_yy	EL_x	PS_y
       0.0              -51.42          29.13          28.57          48.11         -17.83          17.08          158.2          19.33         -77.68          128.8          20.45
   0.03781              -51.42          29.12          28.58          48.11         -17.83          17.08          158.2          19.34         -77.68          128.8          20.45
   0.07563              -51.42          29.12          28.58          48.11         -17.83          17.08          158.2          19.35         -77.67          128.7          20.45
    0.1134              -51.41          29.11          28.58          48.11         -17.83          17.08          158.2          19.36         -77.67          128.7          20.45
    0.1513              -51.41           29.1          28.58           48.1         -17.83          17.08          158.2          19.37         -77.66          128.7          20.45
    0.1891               -51.4           29.1          28.59           48.1         -17.83          17.08          158.1          19.38         -77.66          128.7          20.45
    0.2269               -51.4          29.09          28.59           48.1         -17.83          17.08          158.1          19.39         -77.65          128.7          20.45
    0.2647              -51.39          29.09          28.59          48.09         -17.83          17.08          158.1           19.4         -77.64          128.7          20.45
    0.3025              -51.39          29.08           28.6          48.09         -17.83          17.08          158.1          19.42         -77.64          128.6          20.45
    0.3403              -51.38          29.07           28.6          48.09         -17.83          17.08          158.1          19.43         -77.63          128.6          20.45
    0.3781              -51.38          29.06           28.6          48.08         -17.83          17.08          158.1          19.45         -77.62          128.6          20.45
     0.416              -51.37          29.05          28.61          48.08         -17.83          17.08          158.1          19.46         -77.61          128.6          20.45
    0.4538              -51.36          29.04          28.61          48.07         -17.83          17.08          158.1          19.48          -77.6          128.6          20.45
    0.4916              -51.36          29.03          28.62          48.07         -17.83          17.08          158.1           19.5         -77.59          128.5          20.45
    0.5294              -51.35          29.02          28.62          48.06         -17.83          17.08          158.1          19.52         -77.58          128.5          20.45
    0.5672              -51.34          29.01          28.63          48.05         -17.83          17.08          158.1          19.55         -77.57          128.5          20.45
     0.605              -51.33          28.99          28.63          48.05         -17.83          17.08          158.1          19.57         -77.56          128.4          20.45
    0.6428              -51.32          28.98          28.64          48.04         -17.83          17.07          158.1           19.6         -77.54          128.4          20.45
    0.6807              -51.31          28.96          28.65          48.03         -17.83          17.07          158.1          19.63         -77.53          128.4          20.45
    0.7185               -51.3          28.94          28.66          48.02         -17.83          17.07          158.1          19.66         -77.51          128.3          20.45
    0.7563              -51.28          28.93          28.67          48.01         -17.83          17.07          158.1           19.7         -77.49          128.3          20.45
